%TF.GenerationSoftware,KiCad,Pcbnew,8.0.2-1*%
%TF.CreationDate,2024-05-20T16:42:59-04:00*%
%TF.ProjectId,humep1,68756d65-7031-42e6-9b69-6361645f7063,rev?*%
%TF.SameCoordinates,Original*%
%TF.FileFunction,Copper,L2,Bot*%
%TF.FilePolarity,Positive*%
%FSLAX46Y46*%
G04 Gerber Fmt 4.6, Leading zero omitted, Abs format (unit mm)*
G04 Created by KiCad (PCBNEW 8.0.2-1) date 2024-05-20 16:42:59*
%MOMM*%
%LPD*%
G01*
G04 APERTURE LIST*
%TA.AperFunction,ComponentPad*%
%ADD10R,1.358000X1.358000*%
%TD*%
%TA.AperFunction,ComponentPad*%
%ADD11C,1.358000*%
%TD*%
%TA.AperFunction,ComponentPad*%
%ADD12O,3.000000X1.500000*%
%TD*%
%TA.AperFunction,ComponentPad*%
%ADD13O,1.500000X3.000000*%
%TD*%
%TA.AperFunction,ViaPad*%
%ADD14C,0.600000*%
%TD*%
%TA.AperFunction,Conductor*%
%ADD15C,0.200000*%
%TD*%
G04 APERTURE END LIST*
D10*
%TO.P,ESP32-C3,1,D0*%
%TO.N,/X*%
X85102500Y-71551500D03*
D11*
%TO.P,ESP32-C3,2,D1*%
%TO.N,/Y*%
X85102500Y-69011500D03*
%TO.P,ESP32-C3,3,D2*%
%TO.N,unconnected-(U2-D2-Pad3)*%
X85102500Y-66471500D03*
%TO.P,ESP32-C3,4,D3*%
%TO.N,unconnected-(U2-D3-Pad4)*%
X85102500Y-63931500D03*
%TO.P,ESP32-C3,5,D4*%
%TO.N,unconnected-(U2-D4-Pad5)*%
X85102500Y-61391500D03*
%TO.P,ESP32-C3,6,D5*%
%TO.N,unconnected-(U2-D5-Pad6)*%
X85102500Y-58851500D03*
%TO.P,ESP32-C3,7,TX_D6*%
%TO.N,unconnected-(U2-TX_D6-Pad7)*%
X85102500Y-56311500D03*
%TO.P,ESP32-C3,8,RX_D7*%
%TO.N,unconnected-(U2-RX_D7-Pad8)*%
X69862500Y-56311500D03*
%TO.P,ESP32-C3,9,D8*%
%TO.N,unconnected-(U2-D8-Pad9)*%
X69862500Y-58851500D03*
%TO.P,ESP32-C3,10,D9*%
%TO.N,unconnected-(U2-D9-Pad10)*%
X69862500Y-61391500D03*
%TO.P,ESP32-C3,11,D10*%
%TO.N,unconnected-(U2-D10-Pad11)*%
X69862500Y-63931500D03*
%TO.P,ESP32-C3,12,VCC_3V3*%
%TO.N,/3.3V*%
X69862500Y-66471500D03*
%TO.P,ESP32-C3,13,GND*%
%TO.N,GND*%
X69862500Y-69011500D03*
%TO.P,ESP32-C3,14,VUSB*%
%TO.N,unconnected-(U2-VUSB-Pad14)*%
X69862500Y-71551500D03*
%TD*%
D12*
%TO.P,JOYSTICK (2765),X*%
%TO.N,/X*%
X55675000Y-64000000D03*
%TO.P,JOYSTICK (2765),X+*%
%TO.N,/3.3V*%
X55675000Y-66000000D03*
%TO.P,JOYSTICK (2765),X-*%
%TO.N,GND*%
X55675000Y-62000000D03*
D13*
%TO.P,JOYSTICK (2765),Y*%
%TO.N,/Y*%
X46675000Y-73000000D03*
%TO.P,JOYSTICK (2765),Y+*%
%TO.N,/3.3V*%
X48675000Y-73000000D03*
%TO.P,JOYSTICK (2765),Y-*%
%TO.N,GND*%
X44675000Y-73000000D03*
%TD*%
D14*
%TO.N,/PWR*%
X58000000Y-76250000D03*
X58750000Y-64750000D03*
%TO.N,GND*%
X52250000Y-62000000D03*
X56250000Y-59750000D03*
X52500000Y-76950000D03*
X62750000Y-60750000D03*
%TD*%
D15*
%TO.N,/PWR*%
X58000000Y-65500000D02*
X58000000Y-76250000D01*
X58750000Y-64750000D02*
X58000000Y-65500000D01*
%TO.N,GND*%
X44675000Y-73000000D02*
X44675000Y-73750000D01*
X62750000Y-60750000D02*
X62000000Y-61500000D01*
X52250000Y-62000000D02*
X52250000Y-76700000D01*
X52250000Y-76700000D02*
X52500000Y-76950000D01*
X62000000Y-61500000D02*
X58000000Y-61500000D01*
X58000000Y-61500000D02*
X56250000Y-59750000D01*
%TD*%
M02*
