M48
; DRILL file {KiCad 8.0.2-1} date 2024-05-20T16:43:05-0400
; FORMAT={-:-/ absolute / inch / decimal}
; #@! TF.CreationDate,2024-05-20T16:43:05-04:00
; #@! TF.GenerationSoftware,Kicad,Pcbnew,8.0.2-1
; #@! TF.FileFunction,Plated,1,2,PTH
FMAT,2
INCH
; #@! TA.AperFunction,Plated,PTH,ViaDrill
T1C0.0118
; #@! TA.AperFunction,Plated,PTH,ComponentDrill
T2C0.0335
; #@! TA.AperFunction,Plated,PTH,ComponentDrill
T3C0.0354
%
G90
G05
T1
X2.0571Y-2.4409
X2.0669Y-3.0295
X2.2146Y-2.3524
X2.2835Y-3.002
X2.313Y-2.5492
X2.4705Y-2.3917
T2
X2.7505Y-2.217
X2.7505Y-2.317
X2.7505Y-2.417
X2.7505Y-2.517
X2.7505Y-2.617
X2.7505Y-2.717
X2.7505Y-2.817
X3.3505Y-2.217
X3.3505Y-2.317
X3.3505Y-2.417
X3.3505Y-2.517
X3.3505Y-2.617
X3.3505Y-2.717
X3.3505Y-2.817
T3
X1.7589Y-2.874
X1.8376Y-2.874
X1.9163Y-2.874
X2.1919Y-2.4409
X2.1919Y-2.5197
X2.1919Y-2.5984
M30
