%TF.GenerationSoftware,KiCad,Pcbnew,8.0.2-1*%
%TF.CreationDate,2024-05-20T16:42:59-04:00*%
%TF.ProjectId,humep1,68756d65-7031-42e6-9b69-6361645f7063,rev?*%
%TF.SameCoordinates,Original*%
%TF.FileFunction,Copper,L1,Top*%
%TF.FilePolarity,Positive*%
%FSLAX46Y46*%
G04 Gerber Fmt 4.6, Leading zero omitted, Abs format (unit mm)*
G04 Created by KiCad (PCBNEW 8.0.2-1) date 2024-05-20 16:42:59*
%MOMM*%
%LPD*%
G01*
G04 APERTURE LIST*
G04 Aperture macros list*
%AMRoundRect*
0 Rectangle with rounded corners*
0 $1 Rounding radius*
0 $2 $3 $4 $5 $6 $7 $8 $9 X,Y pos of 4 corners*
0 Add a 4 corners polygon primitive as box body*
4,1,4,$2,$3,$4,$5,$6,$7,$8,$9,$2,$3,0*
0 Add four circle primitives for the rounded corners*
1,1,$1+$1,$2,$3*
1,1,$1+$1,$4,$5*
1,1,$1+$1,$6,$7*
1,1,$1+$1,$8,$9*
0 Add four rect primitives between the rounded corners*
20,1,$1+$1,$2,$3,$4,$5,0*
20,1,$1+$1,$4,$5,$6,$7,0*
20,1,$1+$1,$6,$7,$8,$9,0*
20,1,$1+$1,$8,$9,$2,$3,0*%
G04 Aperture macros list end*
%TA.AperFunction,SMDPad,CuDef*%
%ADD10RoundRect,0.250000X0.337500X0.475000X-0.337500X0.475000X-0.337500X-0.475000X0.337500X-0.475000X0*%
%TD*%
%TA.AperFunction,SMDPad,CuDef*%
%ADD11RoundRect,0.200000X0.200000X0.450000X-0.200000X0.450000X-0.200000X-0.450000X0.200000X-0.450000X0*%
%TD*%
%TA.AperFunction,SMDPad,CuDef*%
%ADD12RoundRect,0.250001X0.799999X1.249999X-0.799999X1.249999X-0.799999X-1.249999X0.799999X-1.249999X0*%
%TD*%
%TA.AperFunction,SMDPad,CuDef*%
%ADD13RoundRect,0.250000X-0.337500X-0.475000X0.337500X-0.475000X0.337500X0.475000X-0.337500X0.475000X0*%
%TD*%
%TA.AperFunction,SMDPad,CuDef*%
%ADD14RoundRect,0.237500X-0.237500X0.300000X-0.237500X-0.300000X0.237500X-0.300000X0.237500X0.300000X0*%
%TD*%
%TA.AperFunction,ComponentPad*%
%ADD15R,1.358000X1.358000*%
%TD*%
%TA.AperFunction,ComponentPad*%
%ADD16C,1.358000*%
%TD*%
%TA.AperFunction,ComponentPad*%
%ADD17O,3.000000X1.500000*%
%TD*%
%TA.AperFunction,ComponentPad*%
%ADD18O,1.500000X3.000000*%
%TD*%
%TA.AperFunction,SMDPad,CuDef*%
%ADD19RoundRect,0.250000X-0.350000X0.850000X-0.350000X-0.850000X0.350000X-0.850000X0.350000X0.850000X0*%
%TD*%
%TA.AperFunction,SMDPad,CuDef*%
%ADD20RoundRect,0.250000X-1.125000X1.275000X-1.125000X-1.275000X1.125000X-1.275000X1.125000X1.275000X0*%
%TD*%
%TA.AperFunction,SMDPad,CuDef*%
%ADD21RoundRect,0.249997X-2.650003X2.950003X-2.650003X-2.950003X2.650003X-2.950003X2.650003X2.950003X0*%
%TD*%
%TA.AperFunction,ViaPad*%
%ADD22C,0.600000*%
%TD*%
%TA.AperFunction,Conductor*%
%ADD23C,0.200000*%
%TD*%
G04 APERTURE END LIST*
D10*
%TO.P,1uF,1*%
%TO.N,/PWR*%
X56537500Y-76500000D03*
%TO.P,1uF,2*%
%TO.N,GND*%
X54462500Y-76500000D03*
%TD*%
D11*
%TO.P,BATTERY,1,+*%
%TO.N,/PWR*%
X63875000Y-58250000D03*
%TO.P,BATTERY,2,-*%
%TO.N,GND*%
X62625000Y-58250000D03*
D12*
%TO.P,BATTERY,MP*%
%TO.N,N/C*%
X66425000Y-55500000D03*
X60075000Y-55500000D03*
%TD*%
D13*
%TO.P,10uF,1*%
%TO.N,/PWR*%
X59000000Y-61300000D03*
%TO.P,10uF,2*%
%TO.N,GND*%
X61075000Y-61300000D03*
%TD*%
D14*
%TO.P,0.1uF,2*%
%TO.N,GND*%
X66750000Y-68412500D03*
%TO.P,0.1uF,1*%
%TO.N,/PWR*%
X66750000Y-66687500D03*
%TD*%
D15*
%TO.P,ESP32-C3,1,D0*%
%TO.N,/X*%
X85102500Y-71551500D03*
D16*
%TO.P,ESP32-C3,2,D1*%
%TO.N,/Y*%
X85102500Y-69011500D03*
%TO.P,ESP32-C3,3,D2*%
%TO.N,unconnected-(U2-D2-Pad3)*%
X85102500Y-66471500D03*
%TO.P,ESP32-C3,4,D3*%
%TO.N,unconnected-(U2-D3-Pad4)*%
X85102500Y-63931500D03*
%TO.P,ESP32-C3,5,D4*%
%TO.N,unconnected-(U2-D4-Pad5)*%
X85102500Y-61391500D03*
%TO.P,ESP32-C3,6,D5*%
%TO.N,unconnected-(U2-D5-Pad6)*%
X85102500Y-58851500D03*
%TO.P,ESP32-C3,7,TX_D6*%
%TO.N,unconnected-(U2-TX_D6-Pad7)*%
X85102500Y-56311500D03*
%TO.P,ESP32-C3,8,RX_D7*%
%TO.N,unconnected-(U2-RX_D7-Pad8)*%
X69862500Y-56311500D03*
%TO.P,ESP32-C3,9,D8*%
%TO.N,unconnected-(U2-D8-Pad9)*%
X69862500Y-58851500D03*
%TO.P,ESP32-C3,10,D9*%
%TO.N,unconnected-(U2-D9-Pad10)*%
X69862500Y-61391500D03*
%TO.P,ESP32-C3,11,D10*%
%TO.N,unconnected-(U2-D10-Pad11)*%
X69862500Y-63931500D03*
%TO.P,ESP32-C3,12,VCC_3V3*%
%TO.N,/3.3V*%
X69862500Y-66471500D03*
%TO.P,ESP32-C3,13,GND*%
%TO.N,GND*%
X69862500Y-69011500D03*
%TO.P,ESP32-C3,14,VUSB*%
%TO.N,unconnected-(U2-VUSB-Pad14)*%
X69862500Y-71551500D03*
%TD*%
D17*
%TO.P,JOYSTICK (2765),X*%
%TO.N,/X*%
X55675000Y-64000000D03*
%TO.P,JOYSTICK (2765),X+*%
%TO.N,/3.3V*%
X55675000Y-66000000D03*
%TO.P,JOYSTICK (2765),X-*%
%TO.N,GND*%
X55675000Y-62000000D03*
D18*
%TO.P,JOYSTICK (2765),Y*%
%TO.N,/Y*%
X46675000Y-73000000D03*
%TO.P,JOYSTICK (2765),Y+*%
%TO.N,/3.3V*%
X48675000Y-73000000D03*
%TO.P,JOYSTICK (2765),Y-*%
%TO.N,GND*%
X44675000Y-73000000D03*
%TD*%
D10*
%TO.P,10uF,1*%
%TO.N,/PWR*%
X67287500Y-61300000D03*
%TO.P,10uF,2*%
%TO.N,GND*%
X65212500Y-61300000D03*
%TD*%
D19*
%TO.P,U1,1,GND*%
%TO.N,GND*%
X64280000Y-65050000D03*
%TO.P,U1,2,VO*%
%TO.N,/3.3V*%
X62000000Y-65050000D03*
D20*
X63525000Y-69675000D03*
X60475000Y-69675000D03*
D21*
X62000000Y-71350000D03*
D20*
X63525000Y-73025000D03*
X60475000Y-73025000D03*
D19*
%TO.P,U1,3,VI*%
%TO.N,/PWR*%
X59720000Y-65050000D03*
%TD*%
D22*
%TO.N,/PWR*%
X58000000Y-76250000D03*
X58750000Y-64750000D03*
%TO.N,GND*%
X52250000Y-62000000D03*
X56250000Y-59750000D03*
X52500000Y-76950000D03*
X62750000Y-60750000D03*
%TD*%
D23*
%TO.N,/Y*%
X85102500Y-69011500D02*
X79864000Y-74250000D01*
X79864000Y-74250000D02*
X79864000Y-75000000D01*
%TO.N,/X*%
X55675000Y-64000000D02*
X53401471Y-64000000D01*
X86831500Y-70572500D02*
X85852500Y-71551500D01*
X53401471Y-64000000D02*
X51500000Y-62098529D01*
X51500000Y-57548654D02*
X55598654Y-53450000D01*
X51500000Y-62098529D02*
X51500000Y-57548654D01*
X55598654Y-53450000D02*
X70200000Y-53450000D01*
X70200000Y-53450000D02*
X84782500Y-68032500D01*
X86258016Y-68032500D02*
X86831500Y-68605984D01*
X84782500Y-68032500D02*
X86258016Y-68032500D01*
X86831500Y-68605984D02*
X86831500Y-70572500D01*
%TO.N,/3.3V*%
X55675000Y-66000000D02*
X56125000Y-66450000D01*
X60600000Y-66450000D02*
X62000000Y-65050000D01*
X56125000Y-66450000D02*
X60600000Y-66450000D01*
%TO.N,/PWR*%
X58750000Y-64750000D02*
X59250000Y-64250000D01*
X59970000Y-64250000D02*
X60720000Y-63500000D01*
X63875000Y-58000000D02*
X65287500Y-58000000D01*
X59000000Y-61780000D02*
X59000000Y-60025000D01*
X59000000Y-60025000D02*
X61975000Y-57050000D01*
X61975000Y-57050000D02*
X63037648Y-57050000D01*
X59250000Y-64250000D02*
X59970000Y-64250000D01*
X63037648Y-57050000D02*
X63325000Y-57337352D01*
X60720000Y-63500000D02*
X59000000Y-61780000D01*
X63325000Y-57337352D02*
X63325000Y-57450000D01*
X68250000Y-61250000D02*
X68250000Y-66137500D01*
X63325000Y-57450000D02*
X63875000Y-58000000D01*
X65287500Y-58000000D02*
X68037500Y-60750000D01*
X68037500Y-60750000D02*
X68037500Y-61037500D01*
X68037500Y-61037500D02*
X68250000Y-61250000D01*
X68250000Y-66137500D02*
X67700000Y-66687500D01*
X67700000Y-66687500D02*
X66750000Y-66687500D01*
%TO.N,/3.3V*%
X62000000Y-65050000D02*
X62000000Y-68150000D01*
X62000000Y-68150000D02*
X60475000Y-69675000D01*
%TO.N,GND*%
X64280000Y-65050000D02*
X64280000Y-65942500D01*
X64280000Y-65942500D02*
X66750000Y-68412500D01*
X65212500Y-61300000D02*
X65212500Y-64117500D01*
X65212500Y-64117500D02*
X64280000Y-65050000D01*
X62750000Y-60750000D02*
X63300000Y-61300000D01*
X63300000Y-61300000D02*
X65212500Y-61300000D01*
X66750000Y-68412500D02*
X69263500Y-68412500D01*
X69263500Y-68412500D02*
X69862500Y-69011500D01*
X62750000Y-58000000D02*
X62750000Y-60750000D01*
X61075000Y-60750000D02*
X62750000Y-60750000D01*
%TO.N,/PWR*%
X56537500Y-76250000D02*
X58000000Y-76250000D01*
%TO.N,GND*%
X55675000Y-62000000D02*
X52250000Y-62000000D01*
X55675000Y-60325000D02*
X55675000Y-62000000D01*
X44675000Y-73750000D02*
X47175000Y-76250000D01*
X52500000Y-76950000D02*
X53200000Y-76250000D01*
X53200000Y-76250000D02*
X54462500Y-76250000D01*
X47175000Y-76250000D02*
X54462500Y-76250000D01*
X56250000Y-59750000D02*
X55675000Y-60325000D01*
X44675000Y-73000000D02*
X44675000Y-73750000D01*
%TO.N,/3.3V*%
X48675000Y-73000000D02*
X56600000Y-73000000D01*
X71591500Y-71957016D02*
X70798516Y-72750000D01*
X70612500Y-66471500D02*
X71591500Y-67450500D01*
X65800000Y-72750000D02*
X64525000Y-71475000D01*
X71591500Y-67450500D02*
X71591500Y-71957016D01*
X65700000Y-68700000D02*
X65100000Y-68700000D01*
X70798516Y-72750000D02*
X65800000Y-72750000D01*
X65100000Y-68700000D02*
X64525000Y-68125000D01*
X56600000Y-73000000D02*
X61475000Y-68125000D01*
%TO.N,/Y*%
X46675000Y-73000000D02*
X46675000Y-73750000D01*
X46675000Y-73750000D02*
X47925000Y-75000000D01*
X47925000Y-75000000D02*
X79864000Y-75000000D01*
%TD*%
M02*
