%TF.GenerationSoftware,KiCad,Pcbnew,8.0.2-1*%
%TF.CreationDate,2024-05-20T16:42:59-04:00*%
%TF.ProjectId,humep1,68756d65-7031-42e6-9b69-6361645f7063,rev?*%
%TF.SameCoordinates,Original*%
%TF.FileFunction,Legend,Top*%
%TF.FilePolarity,Positive*%
%FSLAX46Y46*%
G04 Gerber Fmt 4.6, Leading zero omitted, Abs format (unit mm)*
G04 Created by KiCad (PCBNEW 8.0.2-1) date 2024-05-20 16:42:59*
%MOMM*%
%LPD*%
G01*
G04 APERTURE LIST*
%ADD10C,0.100000*%
%ADD11C,0.120000*%
%ADD12C,0.127000*%
%ADD13C,0.200000*%
G04 APERTURE END LIST*
D10*
X86816390Y-68684836D02*
X87316390Y-68684836D01*
X87316390Y-68684836D02*
X87316390Y-68803884D01*
X87316390Y-68803884D02*
X87292580Y-68875312D01*
X87292580Y-68875312D02*
X87244961Y-68922931D01*
X87244961Y-68922931D02*
X87197342Y-68946741D01*
X87197342Y-68946741D02*
X87102104Y-68970550D01*
X87102104Y-68970550D02*
X87030676Y-68970550D01*
X87030676Y-68970550D02*
X86935438Y-68946741D01*
X86935438Y-68946741D02*
X86887819Y-68922931D01*
X86887819Y-68922931D02*
X86840200Y-68875312D01*
X86840200Y-68875312D02*
X86816390Y-68803884D01*
X86816390Y-68803884D02*
X86816390Y-68684836D01*
X87054485Y-69280074D02*
X86816390Y-69280074D01*
X87316390Y-69113408D02*
X87054485Y-69280074D01*
X87054485Y-69280074D02*
X87316390Y-69446741D01*
X86816390Y-70434836D02*
X87316390Y-70434836D01*
X87316390Y-70434836D02*
X87316390Y-70553884D01*
X87316390Y-70553884D02*
X87292580Y-70625312D01*
X87292580Y-70625312D02*
X87244961Y-70672931D01*
X87244961Y-70672931D02*
X87197342Y-70696741D01*
X87197342Y-70696741D02*
X87102104Y-70720550D01*
X87102104Y-70720550D02*
X87030676Y-70720550D01*
X87030676Y-70720550D02*
X86935438Y-70696741D01*
X86935438Y-70696741D02*
X86887819Y-70672931D01*
X86887819Y-70672931D02*
X86840200Y-70625312D01*
X86840200Y-70625312D02*
X86816390Y-70553884D01*
X86816390Y-70553884D02*
X86816390Y-70434836D01*
X87316390Y-70887217D02*
X86816390Y-71220550D01*
X87316390Y-71220550D02*
X86816390Y-70887217D01*
X67707419Y-69303258D02*
X67683609Y-69350877D01*
X67683609Y-69350877D02*
X67683609Y-69422306D01*
X67683609Y-69422306D02*
X67707419Y-69493734D01*
X67707419Y-69493734D02*
X67755038Y-69541353D01*
X67755038Y-69541353D02*
X67802657Y-69565163D01*
X67802657Y-69565163D02*
X67897895Y-69588972D01*
X67897895Y-69588972D02*
X67969323Y-69588972D01*
X67969323Y-69588972D02*
X68064561Y-69565163D01*
X68064561Y-69565163D02*
X68112180Y-69541353D01*
X68112180Y-69541353D02*
X68159800Y-69493734D01*
X68159800Y-69493734D02*
X68183609Y-69422306D01*
X68183609Y-69422306D02*
X68183609Y-69374687D01*
X68183609Y-69374687D02*
X68159800Y-69303258D01*
X68159800Y-69303258D02*
X68135990Y-69279449D01*
X68135990Y-69279449D02*
X67969323Y-69279449D01*
X67969323Y-69279449D02*
X67969323Y-69374687D01*
X68183609Y-69065163D02*
X67683609Y-69065163D01*
X67683609Y-69065163D02*
X68183609Y-68779449D01*
X68183609Y-68779449D02*
X67683609Y-68779449D01*
X68183609Y-68541353D02*
X67683609Y-68541353D01*
X67683609Y-68541353D02*
X67683609Y-68422305D01*
X67683609Y-68422305D02*
X67707419Y-68350877D01*
X67707419Y-68350877D02*
X67755038Y-68303258D01*
X67755038Y-68303258D02*
X67802657Y-68279448D01*
X67802657Y-68279448D02*
X67897895Y-68255639D01*
X67897895Y-68255639D02*
X67969323Y-68255639D01*
X67969323Y-68255639D02*
X68064561Y-68279448D01*
X68064561Y-68279448D02*
X68112180Y-68303258D01*
X68112180Y-68303258D02*
X68159800Y-68350877D01*
X68159800Y-68350877D02*
X68183609Y-68422305D01*
X68183609Y-68422305D02*
X68183609Y-68541353D01*
X67683609Y-67112782D02*
X67683609Y-66803258D01*
X67683609Y-66803258D02*
X67874085Y-66969925D01*
X67874085Y-66969925D02*
X67874085Y-66898496D01*
X67874085Y-66898496D02*
X67897895Y-66850877D01*
X67897895Y-66850877D02*
X67921704Y-66827068D01*
X67921704Y-66827068D02*
X67969323Y-66803258D01*
X67969323Y-66803258D02*
X68088371Y-66803258D01*
X68088371Y-66803258D02*
X68135990Y-66827068D01*
X68135990Y-66827068D02*
X68159800Y-66850877D01*
X68159800Y-66850877D02*
X68183609Y-66898496D01*
X68183609Y-66898496D02*
X68183609Y-67041353D01*
X68183609Y-67041353D02*
X68159800Y-67088972D01*
X68159800Y-67088972D02*
X68135990Y-67112782D01*
X68135990Y-66588973D02*
X68159800Y-66565163D01*
X68159800Y-66565163D02*
X68183609Y-66588973D01*
X68183609Y-66588973D02*
X68159800Y-66612782D01*
X68159800Y-66612782D02*
X68135990Y-66588973D01*
X68135990Y-66588973D02*
X68183609Y-66588973D01*
X67683609Y-66398497D02*
X67683609Y-66088973D01*
X67683609Y-66088973D02*
X67874085Y-66255640D01*
X67874085Y-66255640D02*
X67874085Y-66184211D01*
X67874085Y-66184211D02*
X67897895Y-66136592D01*
X67897895Y-66136592D02*
X67921704Y-66112783D01*
X67921704Y-66112783D02*
X67969323Y-66088973D01*
X67969323Y-66088973D02*
X68088371Y-66088973D01*
X68088371Y-66088973D02*
X68135990Y-66112783D01*
X68135990Y-66112783D02*
X68159800Y-66136592D01*
X68159800Y-66136592D02*
X68183609Y-66184211D01*
X68183609Y-66184211D02*
X68183609Y-66327068D01*
X68183609Y-66327068D02*
X68159800Y-66374687D01*
X68159800Y-66374687D02*
X68135990Y-66398497D01*
X63684836Y-59743133D02*
X64065789Y-59743133D01*
X63875312Y-59933609D02*
X63875312Y-59552657D01*
X62434836Y-59743133D02*
X62815789Y-59743133D01*
X46434836Y-75683609D02*
X46434836Y-75183609D01*
X46434836Y-75183609D02*
X46553884Y-75183609D01*
X46553884Y-75183609D02*
X46625312Y-75207419D01*
X46625312Y-75207419D02*
X46672931Y-75255038D01*
X46672931Y-75255038D02*
X46696741Y-75302657D01*
X46696741Y-75302657D02*
X46720550Y-75397895D01*
X46720550Y-75397895D02*
X46720550Y-75469323D01*
X46720550Y-75469323D02*
X46696741Y-75564561D01*
X46696741Y-75564561D02*
X46672931Y-75612180D01*
X46672931Y-75612180D02*
X46625312Y-75659800D01*
X46625312Y-75659800D02*
X46553884Y-75683609D01*
X46553884Y-75683609D02*
X46434836Y-75683609D01*
X47030074Y-75445514D02*
X47030074Y-75683609D01*
X46863408Y-75183609D02*
X47030074Y-75445514D01*
X47030074Y-75445514D02*
X47196741Y-75183609D01*
X57684836Y-64183609D02*
X57684836Y-63683609D01*
X57684836Y-63683609D02*
X57803884Y-63683609D01*
X57803884Y-63683609D02*
X57875312Y-63707419D01*
X57875312Y-63707419D02*
X57922931Y-63755038D01*
X57922931Y-63755038D02*
X57946741Y-63802657D01*
X57946741Y-63802657D02*
X57970550Y-63897895D01*
X57970550Y-63897895D02*
X57970550Y-63969323D01*
X57970550Y-63969323D02*
X57946741Y-64064561D01*
X57946741Y-64064561D02*
X57922931Y-64112180D01*
X57922931Y-64112180D02*
X57875312Y-64159800D01*
X57875312Y-64159800D02*
X57803884Y-64183609D01*
X57803884Y-64183609D02*
X57684836Y-64183609D01*
X58137217Y-63683609D02*
X58470550Y-64183609D01*
X58470550Y-63683609D02*
X58137217Y-64183609D01*
X63946741Y-62957419D02*
X63899122Y-62933609D01*
X63899122Y-62933609D02*
X63827693Y-62933609D01*
X63827693Y-62933609D02*
X63756265Y-62957419D01*
X63756265Y-62957419D02*
X63708646Y-63005038D01*
X63708646Y-63005038D02*
X63684836Y-63052657D01*
X63684836Y-63052657D02*
X63661027Y-63147895D01*
X63661027Y-63147895D02*
X63661027Y-63219323D01*
X63661027Y-63219323D02*
X63684836Y-63314561D01*
X63684836Y-63314561D02*
X63708646Y-63362180D01*
X63708646Y-63362180D02*
X63756265Y-63409800D01*
X63756265Y-63409800D02*
X63827693Y-63433609D01*
X63827693Y-63433609D02*
X63875312Y-63433609D01*
X63875312Y-63433609D02*
X63946741Y-63409800D01*
X63946741Y-63409800D02*
X63970550Y-63385990D01*
X63970550Y-63385990D02*
X63970550Y-63219323D01*
X63970550Y-63219323D02*
X63875312Y-63219323D01*
X64184836Y-63433609D02*
X64184836Y-62933609D01*
X64184836Y-62933609D02*
X64470550Y-63433609D01*
X64470550Y-63433609D02*
X64470550Y-62933609D01*
X64708646Y-63433609D02*
X64708646Y-62933609D01*
X64708646Y-62933609D02*
X64827694Y-62933609D01*
X64827694Y-62933609D02*
X64899122Y-62957419D01*
X64899122Y-62957419D02*
X64946741Y-63005038D01*
X64946741Y-63005038D02*
X64970551Y-63052657D01*
X64970551Y-63052657D02*
X64994360Y-63147895D01*
X64994360Y-63147895D02*
X64994360Y-63219323D01*
X64994360Y-63219323D02*
X64970551Y-63314561D01*
X64970551Y-63314561D02*
X64946741Y-63362180D01*
X64946741Y-63362180D02*
X64899122Y-63409800D01*
X64899122Y-63409800D02*
X64827694Y-63433609D01*
X64827694Y-63433609D02*
X64708646Y-63433609D01*
X61637217Y-62933609D02*
X61946741Y-62933609D01*
X61946741Y-62933609D02*
X61780074Y-63124085D01*
X61780074Y-63124085D02*
X61851503Y-63124085D01*
X61851503Y-63124085D02*
X61899122Y-63147895D01*
X61899122Y-63147895D02*
X61922931Y-63171704D01*
X61922931Y-63171704D02*
X61946741Y-63219323D01*
X61946741Y-63219323D02*
X61946741Y-63338371D01*
X61946741Y-63338371D02*
X61922931Y-63385990D01*
X61922931Y-63385990D02*
X61899122Y-63409800D01*
X61899122Y-63409800D02*
X61851503Y-63433609D01*
X61851503Y-63433609D02*
X61708646Y-63433609D01*
X61708646Y-63433609D02*
X61661027Y-63409800D01*
X61661027Y-63409800D02*
X61637217Y-63385990D01*
X62161026Y-63385990D02*
X62184836Y-63409800D01*
X62184836Y-63409800D02*
X62161026Y-63433609D01*
X62161026Y-63433609D02*
X62137217Y-63409800D01*
X62137217Y-63409800D02*
X62161026Y-63385990D01*
X62161026Y-63385990D02*
X62161026Y-63433609D01*
X62351502Y-62933609D02*
X62661026Y-62933609D01*
X62661026Y-62933609D02*
X62494359Y-63124085D01*
X62494359Y-63124085D02*
X62565788Y-63124085D01*
X62565788Y-63124085D02*
X62613407Y-63147895D01*
X62613407Y-63147895D02*
X62637216Y-63171704D01*
X62637216Y-63171704D02*
X62661026Y-63219323D01*
X62661026Y-63219323D02*
X62661026Y-63338371D01*
X62661026Y-63338371D02*
X62637216Y-63385990D01*
X62637216Y-63385990D02*
X62613407Y-63409800D01*
X62613407Y-63409800D02*
X62565788Y-63433609D01*
X62565788Y-63433609D02*
X62422931Y-63433609D01*
X62422931Y-63433609D02*
X62375312Y-63409800D01*
X62375312Y-63409800D02*
X62351502Y-63385990D01*
X59363408Y-62933609D02*
X59530074Y-63433609D01*
X59530074Y-63433609D02*
X59696741Y-62933609D01*
X59863407Y-63433609D02*
X59863407Y-62933609D01*
X60672931Y-75683609D02*
X60434836Y-75683609D01*
X60434836Y-75683609D02*
X60434836Y-75183609D01*
X60839598Y-75683609D02*
X60839598Y-75183609D01*
X60839598Y-75183609D02*
X61006265Y-75540752D01*
X61006265Y-75540752D02*
X61172931Y-75183609D01*
X61172931Y-75183609D02*
X61172931Y-75683609D01*
X61672932Y-75683609D02*
X61387218Y-75683609D01*
X61530075Y-75683609D02*
X61530075Y-75183609D01*
X61530075Y-75183609D02*
X61482456Y-75255038D01*
X61482456Y-75255038D02*
X61434837Y-75302657D01*
X61434837Y-75302657D02*
X61387218Y-75326466D01*
X62149122Y-75683609D02*
X61863408Y-75683609D01*
X62006265Y-75683609D02*
X62006265Y-75183609D01*
X62006265Y-75183609D02*
X61958646Y-75255038D01*
X61958646Y-75255038D02*
X61911027Y-75302657D01*
X61911027Y-75302657D02*
X61863408Y-75326466D01*
X62625312Y-75683609D02*
X62339598Y-75683609D01*
X62482455Y-75683609D02*
X62482455Y-75183609D01*
X62482455Y-75183609D02*
X62434836Y-75255038D01*
X62434836Y-75255038D02*
X62387217Y-75302657D01*
X62387217Y-75302657D02*
X62339598Y-75326466D01*
X62791978Y-75183609D02*
X63125311Y-75183609D01*
X63125311Y-75183609D02*
X62911026Y-75683609D01*
X57434836Y-61993133D02*
X57815789Y-61993133D01*
X57684836Y-65993133D02*
X58065789Y-65993133D01*
X57875312Y-66183609D02*
X57875312Y-65802657D01*
X56387217Y-60183609D02*
X56720550Y-60683609D01*
X56720550Y-60183609D02*
X56387217Y-60683609D01*
X56911026Y-60635990D02*
X56934836Y-60659800D01*
X56934836Y-60659800D02*
X56911026Y-60683609D01*
X56911026Y-60683609D02*
X56887217Y-60659800D01*
X56887217Y-60659800D02*
X56911026Y-60635990D01*
X56911026Y-60635990D02*
X56911026Y-60683609D01*
X56911026Y-60374085D02*
X56934836Y-60397895D01*
X56934836Y-60397895D02*
X56911026Y-60421704D01*
X56911026Y-60421704D02*
X56887217Y-60397895D01*
X56887217Y-60397895D02*
X56911026Y-60374085D01*
X56911026Y-60374085D02*
X56911026Y-60421704D01*
X48684836Y-75493133D02*
X49065789Y-75493133D01*
X48875312Y-75683609D02*
X48875312Y-75302657D01*
X44684836Y-75493133D02*
X45065789Y-75493133D01*
X41030074Y-73945514D02*
X41030074Y-74183609D01*
X40863408Y-73683609D02*
X41030074Y-73945514D01*
X41030074Y-73945514D02*
X41196741Y-73683609D01*
X41363407Y-74135990D02*
X41387217Y-74159800D01*
X41387217Y-74159800D02*
X41363407Y-74183609D01*
X41363407Y-74183609D02*
X41339598Y-74159800D01*
X41339598Y-74159800D02*
X41363407Y-74135990D01*
X41363407Y-74135990D02*
X41363407Y-74183609D01*
X41363407Y-73874085D02*
X41387217Y-73897895D01*
X41387217Y-73897895D02*
X41363407Y-73921704D01*
X41363407Y-73921704D02*
X41339598Y-73897895D01*
X41339598Y-73897895D02*
X41363407Y-73874085D01*
X41363407Y-73874085D02*
X41363407Y-73921704D01*
X55202381Y-75226109D02*
X54916667Y-75226109D01*
X55059524Y-75226109D02*
X55059524Y-74726109D01*
X55059524Y-74726109D02*
X55011905Y-74797538D01*
X55011905Y-74797538D02*
X54964286Y-74845157D01*
X54964286Y-74845157D02*
X54916667Y-74868966D01*
X55630952Y-74892776D02*
X55630952Y-75226109D01*
X55416666Y-74892776D02*
X55416666Y-75154680D01*
X55416666Y-75154680D02*
X55440476Y-75202300D01*
X55440476Y-75202300D02*
X55488095Y-75226109D01*
X55488095Y-75226109D02*
X55559523Y-75226109D01*
X55559523Y-75226109D02*
X55607142Y-75202300D01*
X55607142Y-75202300D02*
X55630952Y-75178490D01*
X56035714Y-74964204D02*
X55869047Y-74964204D01*
X55869047Y-75226109D02*
X55869047Y-74726109D01*
X55869047Y-74726109D02*
X56107142Y-74726109D01*
X61750001Y-52964204D02*
X61821429Y-52988014D01*
X61821429Y-52988014D02*
X61845239Y-53011823D01*
X61845239Y-53011823D02*
X61869048Y-53059442D01*
X61869048Y-53059442D02*
X61869048Y-53130871D01*
X61869048Y-53130871D02*
X61845239Y-53178490D01*
X61845239Y-53178490D02*
X61821429Y-53202300D01*
X61821429Y-53202300D02*
X61773810Y-53226109D01*
X61773810Y-53226109D02*
X61583334Y-53226109D01*
X61583334Y-53226109D02*
X61583334Y-52726109D01*
X61583334Y-52726109D02*
X61750001Y-52726109D01*
X61750001Y-52726109D02*
X61797620Y-52749919D01*
X61797620Y-52749919D02*
X61821429Y-52773728D01*
X61821429Y-52773728D02*
X61845239Y-52821347D01*
X61845239Y-52821347D02*
X61845239Y-52868966D01*
X61845239Y-52868966D02*
X61821429Y-52916585D01*
X61821429Y-52916585D02*
X61797620Y-52940395D01*
X61797620Y-52940395D02*
X61750001Y-52964204D01*
X61750001Y-52964204D02*
X61583334Y-52964204D01*
X62059525Y-53083252D02*
X62297620Y-53083252D01*
X62011906Y-53226109D02*
X62178572Y-52726109D01*
X62178572Y-52726109D02*
X62345239Y-53226109D01*
X62440477Y-52726109D02*
X62726191Y-52726109D01*
X62583334Y-53226109D02*
X62583334Y-52726109D01*
X62821429Y-52726109D02*
X63107143Y-52726109D01*
X62964286Y-53226109D02*
X62964286Y-52726109D01*
X63273809Y-52964204D02*
X63440476Y-52964204D01*
X63511904Y-53226109D02*
X63273809Y-53226109D01*
X63273809Y-53226109D02*
X63273809Y-52726109D01*
X63273809Y-52726109D02*
X63511904Y-52726109D01*
X64011904Y-53226109D02*
X63845238Y-52988014D01*
X63726190Y-53226109D02*
X63726190Y-52726109D01*
X63726190Y-52726109D02*
X63916666Y-52726109D01*
X63916666Y-52726109D02*
X63964285Y-52749919D01*
X63964285Y-52749919D02*
X63988095Y-52773728D01*
X63988095Y-52773728D02*
X64011904Y-52821347D01*
X64011904Y-52821347D02*
X64011904Y-52892776D01*
X64011904Y-52892776D02*
X63988095Y-52940395D01*
X63988095Y-52940395D02*
X63964285Y-52964204D01*
X63964285Y-52964204D02*
X63916666Y-52988014D01*
X63916666Y-52988014D02*
X63726190Y-52988014D01*
X64321428Y-52988014D02*
X64321428Y-53226109D01*
X64154762Y-52726109D02*
X64321428Y-52988014D01*
X64321428Y-52988014D02*
X64488095Y-52726109D01*
X59501786Y-60226109D02*
X59216072Y-60226109D01*
X59358929Y-60226109D02*
X59358929Y-59726109D01*
X59358929Y-59726109D02*
X59311310Y-59797538D01*
X59311310Y-59797538D02*
X59263691Y-59845157D01*
X59263691Y-59845157D02*
X59216072Y-59868966D01*
X59811309Y-59726109D02*
X59858928Y-59726109D01*
X59858928Y-59726109D02*
X59906547Y-59749919D01*
X59906547Y-59749919D02*
X59930357Y-59773728D01*
X59930357Y-59773728D02*
X59954166Y-59821347D01*
X59954166Y-59821347D02*
X59977976Y-59916585D01*
X59977976Y-59916585D02*
X59977976Y-60035633D01*
X59977976Y-60035633D02*
X59954166Y-60130871D01*
X59954166Y-60130871D02*
X59930357Y-60178490D01*
X59930357Y-60178490D02*
X59906547Y-60202300D01*
X59906547Y-60202300D02*
X59858928Y-60226109D01*
X59858928Y-60226109D02*
X59811309Y-60226109D01*
X59811309Y-60226109D02*
X59763690Y-60202300D01*
X59763690Y-60202300D02*
X59739881Y-60178490D01*
X59739881Y-60178490D02*
X59716071Y-60130871D01*
X59716071Y-60130871D02*
X59692262Y-60035633D01*
X59692262Y-60035633D02*
X59692262Y-59916585D01*
X59692262Y-59916585D02*
X59716071Y-59821347D01*
X59716071Y-59821347D02*
X59739881Y-59773728D01*
X59739881Y-59773728D02*
X59763690Y-59749919D01*
X59763690Y-59749919D02*
X59811309Y-59726109D01*
X60406547Y-59892776D02*
X60406547Y-60226109D01*
X60192261Y-59892776D02*
X60192261Y-60154680D01*
X60192261Y-60154680D02*
X60216071Y-60202300D01*
X60216071Y-60202300D02*
X60263690Y-60226109D01*
X60263690Y-60226109D02*
X60335118Y-60226109D01*
X60335118Y-60226109D02*
X60382737Y-60202300D01*
X60382737Y-60202300D02*
X60406547Y-60178490D01*
X60811309Y-59964204D02*
X60644642Y-59964204D01*
X60644642Y-60226109D02*
X60644642Y-59726109D01*
X60644642Y-59726109D02*
X60882737Y-59726109D01*
X65928572Y-64976109D02*
X65976191Y-64976109D01*
X65976191Y-64976109D02*
X66023810Y-64999919D01*
X66023810Y-64999919D02*
X66047620Y-65023728D01*
X66047620Y-65023728D02*
X66071429Y-65071347D01*
X66071429Y-65071347D02*
X66095239Y-65166585D01*
X66095239Y-65166585D02*
X66095239Y-65285633D01*
X66095239Y-65285633D02*
X66071429Y-65380871D01*
X66071429Y-65380871D02*
X66047620Y-65428490D01*
X66047620Y-65428490D02*
X66023810Y-65452300D01*
X66023810Y-65452300D02*
X65976191Y-65476109D01*
X65976191Y-65476109D02*
X65928572Y-65476109D01*
X65928572Y-65476109D02*
X65880953Y-65452300D01*
X65880953Y-65452300D02*
X65857144Y-65428490D01*
X65857144Y-65428490D02*
X65833334Y-65380871D01*
X65833334Y-65380871D02*
X65809525Y-65285633D01*
X65809525Y-65285633D02*
X65809525Y-65166585D01*
X65809525Y-65166585D02*
X65833334Y-65071347D01*
X65833334Y-65071347D02*
X65857144Y-65023728D01*
X65857144Y-65023728D02*
X65880953Y-64999919D01*
X65880953Y-64999919D02*
X65928572Y-64976109D01*
X66309524Y-65428490D02*
X66333334Y-65452300D01*
X66333334Y-65452300D02*
X66309524Y-65476109D01*
X66309524Y-65476109D02*
X66285715Y-65452300D01*
X66285715Y-65452300D02*
X66309524Y-65428490D01*
X66309524Y-65428490D02*
X66309524Y-65476109D01*
X66809524Y-65476109D02*
X66523810Y-65476109D01*
X66666667Y-65476109D02*
X66666667Y-64976109D01*
X66666667Y-64976109D02*
X66619048Y-65047538D01*
X66619048Y-65047538D02*
X66571429Y-65095157D01*
X66571429Y-65095157D02*
X66523810Y-65118966D01*
X67238095Y-65142776D02*
X67238095Y-65476109D01*
X67023809Y-65142776D02*
X67023809Y-65404680D01*
X67023809Y-65404680D02*
X67047619Y-65452300D01*
X67047619Y-65452300D02*
X67095238Y-65476109D01*
X67095238Y-65476109D02*
X67166666Y-65476109D01*
X67166666Y-65476109D02*
X67214285Y-65452300D01*
X67214285Y-65452300D02*
X67238095Y-65428490D01*
X67642857Y-65214204D02*
X67476190Y-65214204D01*
X67476190Y-65476109D02*
X67476190Y-64976109D01*
X67476190Y-64976109D02*
X67714285Y-64976109D01*
X75630953Y-76964204D02*
X75797620Y-76964204D01*
X75869048Y-77226109D02*
X75630953Y-77226109D01*
X75630953Y-77226109D02*
X75630953Y-76726109D01*
X75630953Y-76726109D02*
X75869048Y-76726109D01*
X76059525Y-77202300D02*
X76130953Y-77226109D01*
X76130953Y-77226109D02*
X76250001Y-77226109D01*
X76250001Y-77226109D02*
X76297620Y-77202300D01*
X76297620Y-77202300D02*
X76321429Y-77178490D01*
X76321429Y-77178490D02*
X76345239Y-77130871D01*
X76345239Y-77130871D02*
X76345239Y-77083252D01*
X76345239Y-77083252D02*
X76321429Y-77035633D01*
X76321429Y-77035633D02*
X76297620Y-77011823D01*
X76297620Y-77011823D02*
X76250001Y-76988014D01*
X76250001Y-76988014D02*
X76154763Y-76964204D01*
X76154763Y-76964204D02*
X76107144Y-76940395D01*
X76107144Y-76940395D02*
X76083334Y-76916585D01*
X76083334Y-76916585D02*
X76059525Y-76868966D01*
X76059525Y-76868966D02*
X76059525Y-76821347D01*
X76059525Y-76821347D02*
X76083334Y-76773728D01*
X76083334Y-76773728D02*
X76107144Y-76749919D01*
X76107144Y-76749919D02*
X76154763Y-76726109D01*
X76154763Y-76726109D02*
X76273810Y-76726109D01*
X76273810Y-76726109D02*
X76345239Y-76749919D01*
X76559524Y-77226109D02*
X76559524Y-76726109D01*
X76559524Y-76726109D02*
X76750000Y-76726109D01*
X76750000Y-76726109D02*
X76797619Y-76749919D01*
X76797619Y-76749919D02*
X76821429Y-76773728D01*
X76821429Y-76773728D02*
X76845238Y-76821347D01*
X76845238Y-76821347D02*
X76845238Y-76892776D01*
X76845238Y-76892776D02*
X76821429Y-76940395D01*
X76821429Y-76940395D02*
X76797619Y-76964204D01*
X76797619Y-76964204D02*
X76750000Y-76988014D01*
X76750000Y-76988014D02*
X76559524Y-76988014D01*
X77011905Y-76726109D02*
X77321429Y-76726109D01*
X77321429Y-76726109D02*
X77154762Y-76916585D01*
X77154762Y-76916585D02*
X77226191Y-76916585D01*
X77226191Y-76916585D02*
X77273810Y-76940395D01*
X77273810Y-76940395D02*
X77297619Y-76964204D01*
X77297619Y-76964204D02*
X77321429Y-77011823D01*
X77321429Y-77011823D02*
X77321429Y-77130871D01*
X77321429Y-77130871D02*
X77297619Y-77178490D01*
X77297619Y-77178490D02*
X77273810Y-77202300D01*
X77273810Y-77202300D02*
X77226191Y-77226109D01*
X77226191Y-77226109D02*
X77083334Y-77226109D01*
X77083334Y-77226109D02*
X77035715Y-77202300D01*
X77035715Y-77202300D02*
X77011905Y-77178490D01*
X77511905Y-76773728D02*
X77535714Y-76749919D01*
X77535714Y-76749919D02*
X77583333Y-76726109D01*
X77583333Y-76726109D02*
X77702381Y-76726109D01*
X77702381Y-76726109D02*
X77750000Y-76749919D01*
X77750000Y-76749919D02*
X77773809Y-76773728D01*
X77773809Y-76773728D02*
X77797619Y-76821347D01*
X77797619Y-76821347D02*
X77797619Y-76868966D01*
X77797619Y-76868966D02*
X77773809Y-76940395D01*
X77773809Y-76940395D02*
X77488095Y-77226109D01*
X77488095Y-77226109D02*
X77797619Y-77226109D01*
X78011904Y-77035633D02*
X78392857Y-77035633D01*
X78916666Y-77178490D02*
X78892857Y-77202300D01*
X78892857Y-77202300D02*
X78821428Y-77226109D01*
X78821428Y-77226109D02*
X78773809Y-77226109D01*
X78773809Y-77226109D02*
X78702381Y-77202300D01*
X78702381Y-77202300D02*
X78654762Y-77154680D01*
X78654762Y-77154680D02*
X78630952Y-77107061D01*
X78630952Y-77107061D02*
X78607143Y-77011823D01*
X78607143Y-77011823D02*
X78607143Y-76940395D01*
X78607143Y-76940395D02*
X78630952Y-76845157D01*
X78630952Y-76845157D02*
X78654762Y-76797538D01*
X78654762Y-76797538D02*
X78702381Y-76749919D01*
X78702381Y-76749919D02*
X78773809Y-76726109D01*
X78773809Y-76726109D02*
X78821428Y-76726109D01*
X78821428Y-76726109D02*
X78892857Y-76749919D01*
X78892857Y-76749919D02*
X78916666Y-76773728D01*
X79083333Y-76726109D02*
X79392857Y-76726109D01*
X79392857Y-76726109D02*
X79226190Y-76916585D01*
X79226190Y-76916585D02*
X79297619Y-76916585D01*
X79297619Y-76916585D02*
X79345238Y-76940395D01*
X79345238Y-76940395D02*
X79369047Y-76964204D01*
X79369047Y-76964204D02*
X79392857Y-77011823D01*
X79392857Y-77011823D02*
X79392857Y-77130871D01*
X79392857Y-77130871D02*
X79369047Y-77178490D01*
X79369047Y-77178490D02*
X79345238Y-77202300D01*
X79345238Y-77202300D02*
X79297619Y-77226109D01*
X79297619Y-77226109D02*
X79154762Y-77226109D01*
X79154762Y-77226109D02*
X79107143Y-77202300D01*
X79107143Y-77202300D02*
X79083333Y-77178490D01*
X43321430Y-53976109D02*
X43321430Y-54333252D01*
X43321430Y-54333252D02*
X43297621Y-54404680D01*
X43297621Y-54404680D02*
X43250002Y-54452300D01*
X43250002Y-54452300D02*
X43178573Y-54476109D01*
X43178573Y-54476109D02*
X43130954Y-54476109D01*
X43654763Y-53976109D02*
X43750001Y-53976109D01*
X43750001Y-53976109D02*
X43797620Y-53999919D01*
X43797620Y-53999919D02*
X43845239Y-54047538D01*
X43845239Y-54047538D02*
X43869049Y-54142776D01*
X43869049Y-54142776D02*
X43869049Y-54309442D01*
X43869049Y-54309442D02*
X43845239Y-54404680D01*
X43845239Y-54404680D02*
X43797620Y-54452300D01*
X43797620Y-54452300D02*
X43750001Y-54476109D01*
X43750001Y-54476109D02*
X43654763Y-54476109D01*
X43654763Y-54476109D02*
X43607144Y-54452300D01*
X43607144Y-54452300D02*
X43559525Y-54404680D01*
X43559525Y-54404680D02*
X43535716Y-54309442D01*
X43535716Y-54309442D02*
X43535716Y-54142776D01*
X43535716Y-54142776D02*
X43559525Y-54047538D01*
X43559525Y-54047538D02*
X43607144Y-53999919D01*
X43607144Y-53999919D02*
X43654763Y-53976109D01*
X44178573Y-54238014D02*
X44178573Y-54476109D01*
X44011907Y-53976109D02*
X44178573Y-54238014D01*
X44178573Y-54238014D02*
X44345240Y-53976109D01*
X44488097Y-54452300D02*
X44559525Y-54476109D01*
X44559525Y-54476109D02*
X44678573Y-54476109D01*
X44678573Y-54476109D02*
X44726192Y-54452300D01*
X44726192Y-54452300D02*
X44750001Y-54428490D01*
X44750001Y-54428490D02*
X44773811Y-54380871D01*
X44773811Y-54380871D02*
X44773811Y-54333252D01*
X44773811Y-54333252D02*
X44750001Y-54285633D01*
X44750001Y-54285633D02*
X44726192Y-54261823D01*
X44726192Y-54261823D02*
X44678573Y-54238014D01*
X44678573Y-54238014D02*
X44583335Y-54214204D01*
X44583335Y-54214204D02*
X44535716Y-54190395D01*
X44535716Y-54190395D02*
X44511906Y-54166585D01*
X44511906Y-54166585D02*
X44488097Y-54118966D01*
X44488097Y-54118966D02*
X44488097Y-54071347D01*
X44488097Y-54071347D02*
X44511906Y-54023728D01*
X44511906Y-54023728D02*
X44535716Y-53999919D01*
X44535716Y-53999919D02*
X44583335Y-53976109D01*
X44583335Y-53976109D02*
X44702382Y-53976109D01*
X44702382Y-53976109D02*
X44773811Y-53999919D01*
X44916668Y-53976109D02*
X45202382Y-53976109D01*
X45059525Y-54476109D02*
X45059525Y-53976109D01*
X45369048Y-54476109D02*
X45369048Y-53976109D01*
X45892857Y-54428490D02*
X45869048Y-54452300D01*
X45869048Y-54452300D02*
X45797619Y-54476109D01*
X45797619Y-54476109D02*
X45750000Y-54476109D01*
X45750000Y-54476109D02*
X45678572Y-54452300D01*
X45678572Y-54452300D02*
X45630953Y-54404680D01*
X45630953Y-54404680D02*
X45607143Y-54357061D01*
X45607143Y-54357061D02*
X45583334Y-54261823D01*
X45583334Y-54261823D02*
X45583334Y-54190395D01*
X45583334Y-54190395D02*
X45607143Y-54095157D01*
X45607143Y-54095157D02*
X45630953Y-54047538D01*
X45630953Y-54047538D02*
X45678572Y-53999919D01*
X45678572Y-53999919D02*
X45750000Y-53976109D01*
X45750000Y-53976109D02*
X45797619Y-53976109D01*
X45797619Y-53976109D02*
X45869048Y-53999919D01*
X45869048Y-53999919D02*
X45892857Y-54023728D01*
X46107143Y-54476109D02*
X46107143Y-53976109D01*
X46392857Y-54476109D02*
X46178572Y-54190395D01*
X46392857Y-53976109D02*
X46107143Y-54261823D01*
X47130952Y-54666585D02*
X47107143Y-54642776D01*
X47107143Y-54642776D02*
X47059524Y-54571347D01*
X47059524Y-54571347D02*
X47035714Y-54523728D01*
X47035714Y-54523728D02*
X47011905Y-54452300D01*
X47011905Y-54452300D02*
X46988095Y-54333252D01*
X46988095Y-54333252D02*
X46988095Y-54238014D01*
X46988095Y-54238014D02*
X47011905Y-54118966D01*
X47011905Y-54118966D02*
X47035714Y-54047538D01*
X47035714Y-54047538D02*
X47059524Y-53999919D01*
X47059524Y-53999919D02*
X47107143Y-53928490D01*
X47107143Y-53928490D02*
X47130952Y-53904680D01*
X47297619Y-54023728D02*
X47321428Y-53999919D01*
X47321428Y-53999919D02*
X47369047Y-53976109D01*
X47369047Y-53976109D02*
X47488095Y-53976109D01*
X47488095Y-53976109D02*
X47535714Y-53999919D01*
X47535714Y-53999919D02*
X47559523Y-54023728D01*
X47559523Y-54023728D02*
X47583333Y-54071347D01*
X47583333Y-54071347D02*
X47583333Y-54118966D01*
X47583333Y-54118966D02*
X47559523Y-54190395D01*
X47559523Y-54190395D02*
X47273809Y-54476109D01*
X47273809Y-54476109D02*
X47583333Y-54476109D01*
X47749999Y-53976109D02*
X48083332Y-53976109D01*
X48083332Y-53976109D02*
X47869047Y-54476109D01*
X48488094Y-53976109D02*
X48392856Y-53976109D01*
X48392856Y-53976109D02*
X48345237Y-53999919D01*
X48345237Y-53999919D02*
X48321427Y-54023728D01*
X48321427Y-54023728D02*
X48273808Y-54095157D01*
X48273808Y-54095157D02*
X48249999Y-54190395D01*
X48249999Y-54190395D02*
X48249999Y-54380871D01*
X48249999Y-54380871D02*
X48273808Y-54428490D01*
X48273808Y-54428490D02*
X48297618Y-54452300D01*
X48297618Y-54452300D02*
X48345237Y-54476109D01*
X48345237Y-54476109D02*
X48440475Y-54476109D01*
X48440475Y-54476109D02*
X48488094Y-54452300D01*
X48488094Y-54452300D02*
X48511903Y-54428490D01*
X48511903Y-54428490D02*
X48535713Y-54380871D01*
X48535713Y-54380871D02*
X48535713Y-54261823D01*
X48535713Y-54261823D02*
X48511903Y-54214204D01*
X48511903Y-54214204D02*
X48488094Y-54190395D01*
X48488094Y-54190395D02*
X48440475Y-54166585D01*
X48440475Y-54166585D02*
X48345237Y-54166585D01*
X48345237Y-54166585D02*
X48297618Y-54190395D01*
X48297618Y-54190395D02*
X48273808Y-54214204D01*
X48273808Y-54214204D02*
X48249999Y-54261823D01*
X48988093Y-53976109D02*
X48749998Y-53976109D01*
X48749998Y-53976109D02*
X48726189Y-54214204D01*
X48726189Y-54214204D02*
X48749998Y-54190395D01*
X48749998Y-54190395D02*
X48797617Y-54166585D01*
X48797617Y-54166585D02*
X48916665Y-54166585D01*
X48916665Y-54166585D02*
X48964284Y-54190395D01*
X48964284Y-54190395D02*
X48988093Y-54214204D01*
X48988093Y-54214204D02*
X49011903Y-54261823D01*
X49011903Y-54261823D02*
X49011903Y-54380871D01*
X49011903Y-54380871D02*
X48988093Y-54428490D01*
X48988093Y-54428490D02*
X48964284Y-54452300D01*
X48964284Y-54452300D02*
X48916665Y-54476109D01*
X48916665Y-54476109D02*
X48797617Y-54476109D01*
X48797617Y-54476109D02*
X48749998Y-54452300D01*
X48749998Y-54452300D02*
X48726189Y-54428490D01*
X49178569Y-54666585D02*
X49202379Y-54642776D01*
X49202379Y-54642776D02*
X49249998Y-54571347D01*
X49249998Y-54571347D02*
X49273807Y-54523728D01*
X49273807Y-54523728D02*
X49297617Y-54452300D01*
X49297617Y-54452300D02*
X49321426Y-54333252D01*
X49321426Y-54333252D02*
X49321426Y-54238014D01*
X49321426Y-54238014D02*
X49297617Y-54118966D01*
X49297617Y-54118966D02*
X49273807Y-54047538D01*
X49273807Y-54047538D02*
X49249998Y-53999919D01*
X49249998Y-53999919D02*
X49202379Y-53928490D01*
X49202379Y-53928490D02*
X49178569Y-53904680D01*
X65714286Y-60226109D02*
X65428572Y-60226109D01*
X65571429Y-60226109D02*
X65571429Y-59726109D01*
X65571429Y-59726109D02*
X65523810Y-59797538D01*
X65523810Y-59797538D02*
X65476191Y-59845157D01*
X65476191Y-59845157D02*
X65428572Y-59868966D01*
X66023809Y-59726109D02*
X66071428Y-59726109D01*
X66071428Y-59726109D02*
X66119047Y-59749919D01*
X66119047Y-59749919D02*
X66142857Y-59773728D01*
X66142857Y-59773728D02*
X66166666Y-59821347D01*
X66166666Y-59821347D02*
X66190476Y-59916585D01*
X66190476Y-59916585D02*
X66190476Y-60035633D01*
X66190476Y-60035633D02*
X66166666Y-60130871D01*
X66166666Y-60130871D02*
X66142857Y-60178490D01*
X66142857Y-60178490D02*
X66119047Y-60202300D01*
X66119047Y-60202300D02*
X66071428Y-60226109D01*
X66071428Y-60226109D02*
X66023809Y-60226109D01*
X66023809Y-60226109D02*
X65976190Y-60202300D01*
X65976190Y-60202300D02*
X65952381Y-60178490D01*
X65952381Y-60178490D02*
X65928571Y-60130871D01*
X65928571Y-60130871D02*
X65904762Y-60035633D01*
X65904762Y-60035633D02*
X65904762Y-59916585D01*
X65904762Y-59916585D02*
X65928571Y-59821347D01*
X65928571Y-59821347D02*
X65952381Y-59773728D01*
X65952381Y-59773728D02*
X65976190Y-59749919D01*
X65976190Y-59749919D02*
X66023809Y-59726109D01*
X66619047Y-59892776D02*
X66619047Y-60226109D01*
X66404761Y-59892776D02*
X66404761Y-60154680D01*
X66404761Y-60154680D02*
X66428571Y-60202300D01*
X66428571Y-60202300D02*
X66476190Y-60226109D01*
X66476190Y-60226109D02*
X66547618Y-60226109D01*
X66547618Y-60226109D02*
X66595237Y-60202300D01*
X66595237Y-60202300D02*
X66619047Y-60178490D01*
X67023809Y-59964204D02*
X66857142Y-59964204D01*
X66857142Y-60226109D02*
X66857142Y-59726109D01*
X66857142Y-59726109D02*
X67095237Y-59726109D01*
D11*
%TO.C,1uF*%
X55761252Y-75765000D02*
X55238748Y-75765000D01*
X55761252Y-77235000D02*
X55238748Y-77235000D01*
%TO.C,BATTERY*%
X61015000Y-57260000D02*
X61015000Y-58210000D01*
X61015000Y-58210000D02*
X61965000Y-58210000D01*
X64535000Y-58210000D02*
X64535000Y-58900000D01*
X65115000Y-54290000D02*
X61385000Y-54290000D01*
X65485000Y-57260000D02*
X65485000Y-58210000D01*
X65485000Y-58210000D02*
X64535000Y-58210000D01*
%TO.C,10uF*%
X59776248Y-60565000D02*
X60298752Y-60565000D01*
X59776248Y-62035000D02*
X60298752Y-62035000D01*
%TO.C,0.1uF*%
X67260000Y-67403733D02*
X67260000Y-67696267D01*
X66240000Y-67403733D02*
X66240000Y-67696267D01*
D12*
%TO.C,ESP32-C3*%
X68592500Y-53517500D02*
X86372500Y-53517500D01*
X68592500Y-74472500D02*
X68592500Y-53517500D01*
X86372500Y-53517500D02*
X86372500Y-74472500D01*
X86372500Y-74472500D02*
X68592500Y-74472500D01*
D13*
X87082500Y-71678500D02*
G75*
G02*
X86882500Y-71678500I-100000J0D01*
G01*
X86882500Y-71678500D02*
G75*
G02*
X87082500Y-71678500I100000J0D01*
G01*
D12*
%TO.C,JOYSTICK (2765)*%
X37825000Y-55025000D02*
X55525000Y-55025000D01*
X37825000Y-72975000D02*
X37825000Y-55025000D01*
X43605000Y-72975000D02*
X37825000Y-72975000D01*
X55525000Y-55025000D02*
X55525000Y-60930000D01*
X55525000Y-72975000D02*
X49745000Y-72975000D01*
X55525000Y-72975000D02*
X55525000Y-67070000D01*
D11*
%TO.C,10uF*%
X66511252Y-60565000D02*
X65988748Y-60565000D01*
X66511252Y-62035000D02*
X65988748Y-62035000D01*
%TO.C,U1*%
X58550000Y-66780000D02*
X58820000Y-66780000D01*
X58550000Y-73200000D02*
X58550000Y-66780000D01*
X65450000Y-66780000D02*
X65180000Y-66780000D01*
X65450000Y-73200000D02*
X65450000Y-66780000D01*
X65490000Y-65605000D02*
X65160000Y-65365000D01*
X65490000Y-65125000D01*
X65490000Y-65605000D01*
G36*
X65490000Y-65605000D02*
G01*
X65160000Y-65365000D01*
X65490000Y-65125000D01*
X65490000Y-65605000D01*
G37*
%TD*%
M02*
