%TF.GenerationSoftware,KiCad,Pcbnew,8.0.2-1*%
%TF.CreationDate,2024-05-23T15:55:47-04:00*%
%TF.ProjectId,humep1,68756d65-7031-42e6-9b69-6361645f7063,rev?*%
%TF.SameCoordinates,Original*%
%TF.FileFunction,Other,User*%
%FSLAX46Y46*%
G04 Gerber Fmt 4.6, Leading zero omitted, Abs format (unit mm)*
G04 Created by KiCad (PCBNEW 8.0.2-1) date 2024-05-23 15:55:47*
%MOMM*%
%LPD*%
G01*
G04 APERTURE LIST*
%ADD10C,0.100000*%
G04 APERTURE END LIST*
D10*
X37340000Y-52530000D02*
X87530000Y-52530000D01*
X87530000Y-77730000D01*
X37340000Y-77730000D01*
X37340000Y-52530000D01*
X85940000Y-70710000D02*
X85940000Y-72390000D01*
X84267500Y-70710000D02*
X85940000Y-70710000D01*
X85940000Y-72390000D02*
X84270000Y-72380000D01*
X84270000Y-72380000D02*
X84267500Y-70710000D01*
X85117531Y-68139778D02*
G75*
G02*
X85092531Y-68139410I-25014J-849973D01*
G01*
X85137531Y-65619778D02*
G75*
G02*
X85112531Y-65619410I-25014J-849973D01*
G01*
X85137531Y-63089778D02*
G75*
G02*
X85112531Y-63089410I-25014J-849973D01*
G01*
X85137531Y-60549778D02*
G75*
G02*
X85112531Y-60549410I-25014J-849973D01*
G01*
X85137531Y-57989778D02*
G75*
G02*
X85112531Y-57989410I-25014J-849973D01*
G01*
X85127531Y-55459778D02*
G75*
G02*
X85102531Y-55459410I-25014J-849973D01*
G01*
X69887531Y-70699778D02*
G75*
G02*
X69862531Y-70699410I-25014J-849973D01*
G01*
X69887531Y-68149778D02*
G75*
G02*
X69862531Y-68149410I-25014J-849973D01*
G01*
X69887531Y-65619778D02*
G75*
G02*
X69862531Y-65619410I-25014J-849973D01*
G01*
X69887531Y-63069778D02*
G75*
G02*
X69862531Y-63069410I-25014J-849973D01*
G01*
X69887531Y-60549778D02*
G75*
G02*
X69862531Y-60549410I-25014J-849973D01*
G01*
X69887531Y-57999778D02*
G75*
G02*
X69862531Y-57999410I-25014J-849973D01*
G01*
X69887531Y-55469778D02*
G75*
G02*
X69862531Y-55469410I-25015J-849973D01*
G01*
X54920246Y-65100532D02*
X56482301Y-65110277D01*
X56482301Y-65110277D02*
G75*
G02*
X56430000Y-66890000I-52269J-889094D01*
G01*
X54867945Y-66880255D02*
G75*
G02*
X54920246Y-65100532I52303J889093D01*
G01*
X54867945Y-66880255D02*
X56430000Y-66890000D01*
X54920246Y-67100532D02*
X56482301Y-67110277D01*
X56482301Y-67110277D02*
G75*
G02*
X56430000Y-68890000I-52269J-889094D01*
G01*
X54867945Y-68880255D02*
G75*
G02*
X54920246Y-67100532I52303J889093D01*
G01*
X54867945Y-68880255D02*
X56430000Y-68890000D01*
X49564469Y-56250244D02*
X49554724Y-57812299D01*
X47784746Y-56197943D02*
X47775001Y-57759998D01*
X47784746Y-56197943D02*
G75*
G02*
X49564469Y-56250244I889093J-52303D01*
G01*
X49554724Y-57812299D02*
G75*
G02*
X47775001Y-57759998I-889094J52269D01*
G01*
X47574469Y-56250244D02*
X47564724Y-57812299D01*
X45794746Y-56197943D02*
X45785001Y-57759998D01*
X45794746Y-56197943D02*
G75*
G02*
X47574469Y-56250244I889093J-52303D01*
G01*
X47564724Y-57812299D02*
G75*
G02*
X45785001Y-57759998I-889094J52269D01*
G01*
X45564469Y-56250244D02*
X45554724Y-57812299D01*
X43784746Y-56197943D02*
G75*
G02*
X45564469Y-56250244I889093J-52303D01*
G01*
X43784746Y-56197943D02*
X43775001Y-57759998D01*
X45554724Y-57812299D02*
G75*
G02*
X43775001Y-57759998I-889094J52269D01*
G01*
X52707547Y-70948979D02*
G75*
G02*
X52682548Y-70948681I-25023J-1050399D01*
G01*
X40690000Y-58950000D02*
G75*
G02*
X40665001Y-58949702I-25023J-1050399D01*
G01*
X52697547Y-70948979D02*
G75*
G02*
X52672548Y-70948681I-25023J-1050399D01*
G01*
X54877945Y-64890255D02*
G75*
G02*
X54930246Y-63110534I52302J889092D01*
G01*
X54877945Y-64890255D02*
X56440000Y-64900000D01*
X54930246Y-63110532D02*
X56492301Y-63120277D01*
X56492301Y-63120277D02*
G75*
G02*
X56440000Y-64900000I-52269J-889094D01*
G01*
M02*
