%TF.GenerationSoftware,KiCad,Pcbnew,8.0.2-1*%
%TF.CreationDate,2024-05-23T15:55:47-04:00*%
%TF.ProjectId,humep1,68756d65-7031-42e6-9b69-6361645f7063,rev?*%
%TF.SameCoordinates,Original*%
%TF.FileFunction,Other,User*%
%FSLAX46Y46*%
G04 Gerber Fmt 4.6, Leading zero omitted, Abs format (unit mm)*
G04 Created by KiCad (PCBNEW 8.0.2-1) date 2024-05-23 15:55:47*
%MOMM*%
%LPD*%
G01*
G04 APERTURE LIST*
%ADD10C,0.100000*%
G04 APERTURE END LIST*
D10*
X67274999Y-68725000D02*
G75*
G02*
X66951131Y-68994515I-269499J-5500D01*
G01*
X63647203Y-57553562D02*
X64083544Y-57552798D01*
X56470000Y-65100000D02*
G75*
G02*
X56417699Y-66879737I-52300J-889100D01*
G01*
X64930000Y-64177527D02*
X64928514Y-65948813D01*
X61403952Y-60516475D02*
G75*
G02*
X61704587Y-60795710I20648J-279225D01*
G01*
X61627527Y-63897927D02*
X62398812Y-63899013D01*
X45780000Y-56200000D02*
G75*
G02*
X47559737Y-56252301I889100J-52300D01*
G01*
X60736394Y-62064599D02*
G75*
G02*
X60435735Y-61785364I-20694J279199D01*
G01*
X60370000Y-64187527D02*
X60368514Y-65958813D01*
X85937500Y-70705000D02*
X85940000Y-72390000D01*
X63881187Y-66198514D02*
G75*
G02*
X63630000Y-65920000I28813J278514D01*
G01*
X85137531Y-63099726D02*
G75*
G02*
X85112531Y-63099358I-25031J-849974D01*
G01*
X61180000Y-56750000D02*
G75*
G02*
X60917210Y-57047683I-300000J0D01*
G01*
X54875398Y-68884446D02*
G75*
G02*
X54927699Y-67104717I52302J889096D01*
G01*
X66226715Y-66399806D02*
G75*
G02*
X66494454Y-66100006I267785J30306D01*
G01*
X66494454Y-67276725D02*
G75*
G02*
X66224995Y-66974999I46J271225D01*
G01*
X54865398Y-66884446D02*
G75*
G02*
X54917699Y-65104717I52302J889096D01*
G01*
X54917699Y-65104723D02*
X56470000Y-65100000D01*
X69887531Y-63074726D02*
G75*
G02*
X69862531Y-63074358I-25031J-849974D01*
G01*
X59242790Y-53942317D02*
X60881459Y-53950000D01*
X62650000Y-64177527D02*
X62648514Y-65948813D01*
X65322317Y-56782113D02*
X65330000Y-54234903D01*
X54875398Y-64894446D02*
X56427699Y-64889723D01*
X69887531Y-65624726D02*
G75*
G02*
X69862531Y-65624358I-25031J-849974D01*
G01*
X43780000Y-56200000D02*
G75*
G02*
X45559737Y-56252301I889100J-52300D01*
G01*
X63426342Y-57792798D02*
G75*
G02*
X63647206Y-57553603I239958J-2D01*
G01*
X49564446Y-57804602D02*
G75*
G02*
X47784717Y-57752301I-889096J52302D01*
G01*
X66494454Y-66100000D02*
X67000000Y-66100000D01*
X60917210Y-57047683D02*
X59270000Y-57050000D01*
X54793952Y-53476475D02*
X54105173Y-53480537D01*
X65548779Y-60525938D02*
G75*
G02*
X65849530Y-60805173I20721J-279262D01*
G01*
X87460000Y-52495000D02*
X37310000Y-52500000D01*
X87460000Y-77695000D02*
X87460000Y-52495000D01*
X67929235Y-61769316D02*
G75*
G02*
X67650000Y-62070000I-279235J-20684D01*
G01*
X61349013Y-64149115D02*
G75*
G02*
X61627527Y-63897929I278487J-28785D01*
G01*
X56863952Y-53486475D02*
G75*
G02*
X57164587Y-53765710I20648J-279225D01*
G01*
X84305000Y-70710000D02*
X85930000Y-70710000D01*
X54875398Y-68884446D02*
X56427699Y-68879723D01*
X60368514Y-65958813D02*
G75*
G02*
X60090000Y-66210000I-278514J28813D01*
G01*
X59069013Y-64159115D02*
G75*
G02*
X59347527Y-63907929I278487J-28785D01*
G01*
X64881221Y-62074062D02*
X65574827Y-62069463D01*
X59333952Y-60526475D02*
G75*
G02*
X59634587Y-60805710I20648J-279225D01*
G01*
X67529142Y-54207693D02*
X67530000Y-56744903D01*
X52707547Y-70949047D02*
G75*
G02*
X52682548Y-70948748I-25047J-1050353D01*
G01*
X37330000Y-77700000D02*
X87460000Y-77695000D01*
X67000000Y-67825000D02*
G75*
G02*
X67275000Y-68100000I0J-275000D01*
G01*
X62400861Y-57550764D02*
X62837202Y-57550000D01*
X54927699Y-67104723D02*
X56480000Y-67100000D01*
X67275000Y-68100000D02*
X67274999Y-68725000D01*
X64083544Y-57552798D02*
G75*
G02*
X64322738Y-57773662I-44J-240002D01*
G01*
X54875398Y-64894446D02*
G75*
G02*
X54927699Y-63114717I52302J889096D01*
G01*
X56863952Y-53486475D02*
X56175173Y-53490537D01*
X69887531Y-57999726D02*
G75*
G02*
X69862531Y-57999358I-25031J-849974D01*
G01*
X66494454Y-69001725D02*
G75*
G02*
X66224995Y-68699999I46J271225D01*
G01*
X63629013Y-64149115D02*
G75*
G02*
X63907527Y-63897929I278487J-28785D01*
G01*
X66226715Y-68124806D02*
G75*
G02*
X66494454Y-67825006I267785J30306D01*
G01*
X67000000Y-66100000D02*
G75*
G02*
X67275000Y-66375000I0J-275000D01*
G01*
X63907527Y-63897927D02*
X64678812Y-63899013D01*
X40687547Y-58949047D02*
G75*
G02*
X40662548Y-58948748I-25047J-1050353D01*
G01*
X54865398Y-66884446D02*
X56417699Y-66879723D01*
X85940000Y-72390000D02*
X84270000Y-72380000D01*
X58972317Y-56787210D02*
X58980000Y-54240000D01*
X65548779Y-60525938D02*
X64860000Y-60530000D01*
X65592790Y-53937220D02*
X67231459Y-53944903D01*
X59069999Y-65930000D02*
X59069013Y-64159115D01*
X63666342Y-58952798D02*
G75*
G02*
X63427066Y-58731940I-42J239998D01*
G01*
X69887531Y-60549726D02*
G75*
G02*
X69862531Y-60549358I-25031J-849974D01*
G01*
X64095481Y-58952034D02*
X63666342Y-58952798D01*
X61601187Y-66198514D02*
G75*
G02*
X61350000Y-65920000I28813J278514D01*
G01*
X85127531Y-55459726D02*
G75*
G02*
X85102531Y-55459358I-25031J-849974D01*
G01*
X56196394Y-55034599D02*
G75*
G02*
X55895735Y-54755364I-20694J279199D01*
G01*
X66225001Y-68700000D02*
X66226715Y-68124806D01*
X64881221Y-62074062D02*
G75*
G02*
X64580470Y-61794827I-20721J279262D01*
G01*
X64928514Y-65948813D02*
G75*
G02*
X64650000Y-66200000I-278514J28813D01*
G01*
X60118812Y-63909013D02*
G75*
G02*
X60369973Y-64187527I-28812J-278487D01*
G01*
X66956394Y-62074599D02*
G75*
G02*
X66655735Y-61795364I-20694J279199D01*
G01*
X66951133Y-67269506D02*
X66494454Y-67276725D01*
X69887531Y-70699726D02*
G75*
G02*
X69862531Y-70699358I-25031J-849974D01*
G01*
X64580765Y-60830684D02*
G75*
G02*
X64860000Y-60530000I279235J20684D01*
G01*
X58666394Y-62074599D02*
X59360000Y-62070000D01*
X60736394Y-62064599D02*
X61430000Y-62060000D01*
X64322780Y-57773659D02*
X64316342Y-58712798D01*
X62420000Y-58950000D02*
G75*
G02*
X62180764Y-58729139I0J240000D01*
G01*
X56480000Y-67100000D02*
G75*
G02*
X56427699Y-68879737I-52300J-889100D01*
G01*
X62370000Y-66200001D02*
X61601187Y-66198514D01*
X45564446Y-57804602D02*
X45559723Y-56252301D01*
X59634636Y-60805710D02*
X59639235Y-61769316D01*
X47784723Y-57752301D02*
X47780000Y-56200000D01*
X59333952Y-60526475D02*
X58645173Y-60530537D01*
X47564446Y-57804602D02*
G75*
G02*
X45784717Y-57752301I-889096J52302D01*
G01*
X58980000Y-54240000D02*
G75*
G02*
X59242790Y-53942317I300000J0D01*
G01*
X67623952Y-60526475D02*
X66935173Y-60530537D01*
X66225001Y-66975000D02*
X66226715Y-66399806D01*
X62180000Y-57790000D02*
G75*
G02*
X62400861Y-57550764I240000J0D01*
G01*
X61704636Y-60795710D02*
X61709235Y-61759316D01*
X64941461Y-74326587D02*
G75*
G02*
X64700000Y-74574996I-275861J26587D01*
G01*
X65854062Y-61768779D02*
G75*
G02*
X65574827Y-62069530I-279262J-20721D01*
G01*
X85137531Y-65624726D02*
G75*
G02*
X85112531Y-65624358I-25031J-849974D01*
G01*
X65330000Y-54234903D02*
G75*
G02*
X65592790Y-53937217I300000J3D01*
G01*
X85137531Y-57999726D02*
G75*
G02*
X85112531Y-57999358I-25031J-849974D01*
G01*
X67924636Y-60805710D02*
X67929235Y-61769316D01*
X67623952Y-60526475D02*
G75*
G02*
X67924587Y-60805710I20648J-279225D01*
G01*
X67530000Y-56744903D02*
G75*
G02*
X67267210Y-57042583I-300000J3D01*
G01*
X84270000Y-72380000D02*
X84262500Y-70725000D01*
X69887531Y-55474726D02*
G75*
G02*
X69862531Y-55474358I-25031J-849974D01*
G01*
X66655938Y-60831221D02*
X66655710Y-61795364D01*
X66951133Y-68994506D02*
X66494454Y-69001725D01*
X61179142Y-54212790D02*
X61180000Y-56750000D01*
X59298413Y-74616461D02*
G75*
G02*
X59050004Y-74375000I26587J275861D01*
G01*
X64701586Y-68097866D02*
G75*
G02*
X64949973Y-68339330I-26586J-275834D01*
G01*
X63076438Y-57770861D02*
X63070000Y-58710000D01*
X67267210Y-57042586D02*
X65620000Y-57044903D01*
X43784723Y-57752301D02*
X43780000Y-56200000D01*
X45784723Y-57752301D02*
X45780000Y-56200000D01*
X63629999Y-65920000D02*
X63629013Y-64149115D01*
X59321187Y-66208514D02*
G75*
G02*
X59070000Y-65930000I28813J278514D01*
G01*
X85112531Y-68149726D02*
G75*
G02*
X85087531Y-68149358I-25031J-849974D01*
G01*
X62849139Y-58949236D02*
X62420000Y-58950000D01*
X55895938Y-53791221D02*
G75*
G02*
X56175173Y-53490470I279262J20721D01*
G01*
X60881459Y-53950000D02*
G75*
G02*
X61179183Y-54212785I41J-300000D01*
G01*
X57164636Y-53765710D02*
X57169235Y-54729316D01*
X54126394Y-55024599D02*
G75*
G02*
X53825735Y-54745364I-20694J279199D01*
G01*
X65620000Y-57044903D02*
G75*
G02*
X65322314Y-56782113I0J300003D01*
G01*
X85137531Y-60549726D02*
G75*
G02*
X85112531Y-60549358I-25031J-849974D01*
G01*
X63070000Y-58710000D02*
G75*
G02*
X62849139Y-58949236I-240000J0D01*
G01*
X60090000Y-66210001D02*
X59321187Y-66208514D01*
X60435938Y-60821221D02*
G75*
G02*
X60715173Y-60520470I279262J20721D01*
G01*
X54793952Y-53476475D02*
G75*
G02*
X55094587Y-53755710I20648J-279225D01*
G01*
X58365938Y-60831221D02*
G75*
G02*
X58645173Y-60530470I279262J20721D01*
G01*
X59050000Y-68350000D02*
G75*
G02*
X59291459Y-68101569I275900J-26600D01*
G01*
X62837202Y-57550000D02*
G75*
G02*
X63076436Y-57770861I-2J-240000D01*
G01*
X55895938Y-53791221D02*
X55895710Y-54755364D01*
X64949999Y-68339327D02*
X64941461Y-74326587D01*
X65849463Y-60805173D02*
X65854062Y-61768779D01*
X61349999Y-65920000D02*
X61349013Y-64149115D01*
X59291461Y-68101587D02*
X64701586Y-68097866D01*
X64316342Y-58712798D02*
G75*
G02*
X64095484Y-58952074I-240042J-2D01*
G01*
X54927699Y-63114723D02*
X56480000Y-63110000D01*
X62180764Y-58729139D02*
X62180000Y-57790000D01*
X54126394Y-55024599D02*
X54820000Y-55020000D01*
X60435938Y-60821221D02*
X60435710Y-61785364D01*
X62398812Y-63899013D02*
G75*
G02*
X62649973Y-64177527I-28812J-278487D01*
G01*
X66956394Y-62074599D02*
X67650000Y-62070000D01*
X61709235Y-61759316D02*
G75*
G02*
X61430000Y-62060000I-279235J-20684D01*
G01*
X53825938Y-53781221D02*
X53825710Y-54745364D01*
X56480000Y-63110000D02*
G75*
G02*
X56427699Y-64889737I-52300J-889100D01*
G01*
X57169235Y-54729316D02*
G75*
G02*
X56890000Y-55030000I-279235J-20684D01*
G01*
X63427106Y-58731937D02*
X63426342Y-57792798D01*
X64580765Y-60830684D02*
X64580537Y-61794827D01*
X45564446Y-57804602D02*
G75*
G02*
X43784717Y-57752301I-889096J52302D01*
G01*
X37310000Y-52500000D02*
X37329792Y-77700000D01*
X53825938Y-53781221D02*
G75*
G02*
X54105173Y-53480470I279262J20721D01*
G01*
X58666394Y-62074599D02*
G75*
G02*
X58365735Y-61795364I-20694J279199D01*
G01*
X55094636Y-53755710D02*
X55099235Y-54719316D01*
X67231459Y-53944903D02*
G75*
G02*
X67529180Y-54207688I41J-299997D01*
G01*
X58365938Y-60831221D02*
X58365710Y-61795364D01*
X59270000Y-57050000D02*
G75*
G02*
X58972317Y-56787210I0J300000D01*
G01*
X69887531Y-68149726D02*
G75*
G02*
X69862531Y-68149358I-25031J-849974D01*
G01*
X61403952Y-60516475D02*
X60715173Y-60520537D01*
X66494454Y-67825000D02*
X67000000Y-67825000D01*
X47564446Y-57804602D02*
X47559723Y-56252301D01*
X64678812Y-63899013D02*
G75*
G02*
X64929973Y-64177527I-28812J-278487D01*
G01*
X62648514Y-65948813D02*
G75*
G02*
X62370000Y-66200000I-278514J28813D01*
G01*
X49564446Y-57804602D02*
X49559723Y-56252301D01*
X67274999Y-67000000D02*
G75*
G02*
X66951131Y-67269515I-269499J-5500D01*
G01*
X59347527Y-63907927D02*
X60118812Y-63909013D01*
X56196394Y-55034599D02*
X56890000Y-55030000D01*
X55099235Y-54719316D02*
G75*
G02*
X54820000Y-55020000I-279235J-20684D01*
G01*
X64650000Y-66200001D02*
X63881187Y-66198514D01*
X66655938Y-60831221D02*
G75*
G02*
X66935173Y-60530470I279262J20721D01*
G01*
X64700000Y-74575000D02*
X59298413Y-74616461D01*
X67275000Y-66375000D02*
X67274999Y-67000000D01*
X47780000Y-56200000D02*
G75*
G02*
X49559737Y-56252301I889100J-52300D01*
G01*
X59639235Y-61769316D02*
G75*
G02*
X59360000Y-62070000I-279235J-20684D01*
G01*
X59050000Y-74375000D02*
X59050000Y-68350000D01*
M02*
